ffmpeg started on 2025-09-30 at 20:06:44
Report written to "D:\Convert\FFMetrics\reports\psnr_report-6.txt"
Log level: 32
Command line:
ffmpeg -hide_banner -nostdin -i "F:\\\xc0\xed\xe8\xec\xe5\\\xce\xed\xe3\xee\xe8\xed\xe3\xe8\\!_37_\xc7\xe8\xec\xe0_2025\\JamClub\\\xc4\xee\xea\xf2\xee\xf0 \xd1\xf2\xee\xf3\xed\\\xd2\xc2-4\\JamClub_Dr_Stone_Science_Future_05_1080p_HEVC.mkv" -i "F:\\\xc0\xed\xe8\xec\xe5\\\xce\xed\xe3\xee\xe8\xed\xe3\xe8\\!_37_\xc7\xe8\xec\xe0_2025\\JamClub\\\xc4\xee\xea\xf2\xee\xf0 \xd1\xf2\xee\xf3\xed\\\xd2\xc2-4\\JamClub_Dr_Stone_Science_Future_05_1080p.mp4" -lavfi "[0:v]settb=AVTB,setpts=PTS-STARTPTS,format=pix_fmts=yuv420p10le,fps=24000/1001,scale=1920:1080:flags=bicubic:out_range=limited:out_chroma_loc=left,colorspace=format=yuv420p10:range=tv:primaries=bt709:trc=bt709:space=bt709:fast=0[main];[1:v]settb=AVTB,setpts=PTS-STARTPTS,format=pix_fmts=yuv420p,fps=24000/1001,scale=1920:1080:flags=bicubic:out_range=limited:out_chroma_loc=left,colorspace=format=yuv420p:irange=tv:iprimaries=bt709:itrc=bt709:ispace=bt709:range=tv:primaries=bt709:trc=bt709:space=bt709:fast=0[ref];[main][ref]psnr=eof_action=endall:stats_file='D\\:/Convert/FFMetrics/logs/psnr_logfile-6.txt'" -f null -
Input #0, matroska,webm, from 'F:\Аниме\Онгоинги\!_37_Зима_2025\JamClub\Доктор Стоун\ТВ-4\JamClub_Dr_Stone_Science_Future_05_1080p_HEVC.mkv':
  Metadata:
    COMPATIBLE_BRANDS: mp42mp41
    MAJOR_BRAND     : mp42
    MINOR_VERSION   : 0
    ENCODER         : Lavf61.7.100
  Duration: 00:24:22.21, start: -0.021000, bitrate: 1518 kb/s
  Stream #0:0(eng): Video: hevc (Main 10), yuv420p10le(tv, bt709, progressive), 1920x1080 [SAR 1:1 DAR 16:9], 23.98 fps, 23.98 tbr, 1k tbn (default)
      Metadata:
        HANDLER_NAME    : Mainconcept Video Media Handler
        VENDOR_ID       : [0][0][0][0]
        ENCODER         : Lavc61.19.100 libx265
        BPS             : 1320151
        DURATION        : 00:24:22.168708333
        NUMBER_OF_FRAMES: 35057
        NUMBER_OF_BYTES : 241285450
        _STATISTICS_WRITING_APP: mkvpropedit v94.0 ('Initiate') 64-bit
        _STATISTICS_WRITING_DATE_UTC: 2025-09-30 16:44:54
        _STATISTICS_TAGS: BPS DURATION NUMBER_OF_FRAMES NUMBER_OF_BYTES
  Stream #0:1(eng): Audio: aac (LC), 48000 Hz, stereo, fltp (default)
      Metadata:
        HANDLER_NAME    : #Mainconcept MP4 Sound Media Handler
        VENDOR_ID       : [0][0][0][0]
        ENCODER         : Lavc61.19.100 aac
        BPS             : 194645
        DURATION        : 00:24:22.186000000
        NUMBER_OF_FRAMES: 68541
        NUMBER_OF_BYTES : 35576022
        _STATISTICS_WRITING_APP: mkvpropedit v94.0 ('Initiate') 64-bit
        _STATISTICS_WRITING_DATE_UTC: 2025-09-30 16:44:54
        _STATISTICS_TAGS: BPS DURATION NUMBER_OF_FRAMES NUMBER_OF_BYTES
Input #1, mov,mp4,m4a,3gp,3g2,mj2, from 'F:\Аниме\Онгоинги\!_37_Зима_2025\JamClub\Доктор Стоун\ТВ-4\JamClub_Dr_Stone_Science_Future_05_1080p.mp4':
  Metadata:
    major_brand     : mp42
    minor_version   : 0
    compatible_brands: mp42mp41
    creation_time   : 2025-02-16T13:58:29.000000Z
  Duration: 00:24:22.17, start: 0.000000, bitrate: 4951 kb/s
  Stream #1:0[0x1](eng): Video: h264 (Main) (avc1 / 0x31637661), yuv420p(progressive), 1920x1080 [SAR 1:1 DAR 16:9], 4630 kb/s, 23.98 fps, 23.98 tbr, 24k tbn (default)
      Metadata:
        creation_time   : 2025-02-16T13:58:29.000000Z
        handler_name    : Mainconcept Video Media Handler
        vendor_id       : [0][0][0][0]
        encoder         : AVC Coding
  Stream #1:1[0x2](eng): Audio: aac (LC) (mp4a / 0x6134706D), 48000 Hz, stereo, fltp, 317 kb/s (default)
      Metadata:
        creation_time   : 2025-02-16T13:58:29.000000Z
        handler_name    : #Mainconcept MP4 Sound Media Handler
        vendor_id       : [0][0][0][0]
Stream mapping:
  Stream #0:0 (hevc) -> settb:default
  Stream #1:0 (h264) -> settb:default
  psnr:default -> Stream #0:0 (wrapped_avframe)
  Stream #0:1 -> #0:1 (aac (native) -> pcm_s16le (native))
Output #0, null, to 'pipe:':
  Metadata:
    COMPATIBLE_BRANDS: mp42mp41
    MAJOR_BRAND     : mp42
    MINOR_VERSION   : 0
    encoder         : Lavf61.7.100
  Stream #0:0: Video: wrapped_avframe, yuv420p10le(tv, bt709, progressive), 1920x1080 [SAR 1:1 DAR 16:9], q=2-31, 200 kb/s, 23.98 fps, 23.98 tbn
      Metadata:
        encoder         : Lavc61.19.100 wrapped_avframe
  Stream #0:1(eng): Audio: pcm_s16le, 48000 Hz, stereo, s16, 1536 kb/s (default)
      Metadata:
        HANDLER_NAME    : #Mainconcept MP4 Sound Media Handler
        VENDOR_ID       : [0][0][0][0]
        _STATISTICS_TAGS: BPS DURATION NUMBER_OF_FRAMES NUMBER_OF_BYTES
        BPS             : 194645
        DURATION        : 00:24:22.186000000
        NUMBER_OF_FRAMES: 68541
        NUMBER_OF_BYTES : 35576022
        _STATISTICS_WRITING_APP: mkvpropedit v94.0 ('Initiate') 64-bit
        _STATISTICS_WRITING_DATE_UTC: 2025-09-30 16:44:54
        encoder         : Lavc61.19.100 pcm_s16le
frame=  110 fps=0.0 q=-0.0 size=N/A time=00:00:04.58 bitrate=N/A speed=8.97x    frame=  254 fps=248 q=-0.0 size=N/A time=00:00:10.59 bitrate=N/A speed=10.4x    frame=  430 fps=280 q=-0.0 size=N/A time=00:00:17.93 bitrate=N/A speed=11.7x    frame=  638 fps=310 q=-0.0 size=N/A time=00:00:26.60 bitrate=N/A speed=12.9x    frame=  837 fps=325 q=-0.0 size=N/A time=00:00:34.90 bitrate=N/A speed=13.6x    frame= 1027 fps=333 q=-0.0 size=N/A time=00:00:42.83 bitrate=N/A speed=13.9x    frame= 1234 fps=343 q=-0.0 size=N/A time=00:00:51.46 bitrate=N/A speed=14.3x    frame= 1428 fps=348 q=-0.0 size=N/A time=00:00:59.55 bitrate=N/A speed=14.5x    frame= 1578 fps=340 q=-0.0 size=N/A time=00:01:05.81 bitrate=N/A speed=14.2x    frame= 1714 fps=333 q=-0.0 size=N/A time=00:01:11.48 bitrate=N/A speed=13.9x    frame= 1860 fps=329 q=-0.0 size=N/A time=00:01:17.57 bitrate=N/A speed=13.7x    frame= 2007 fps=325 q=-0.0 size=N/A time=00:01:23.70 bitrate=N/A speed=13.6x    frame= 2162 fps=323 q=-0.0 size=N/A time=00:01:30.17 bitrate=N/A speed=13.5x    frame= 2331 fps=323 q=-0.0 size=N/A time=00:01:37.22 bitrate=N/A speed=13.5x    frame= 2457 fps=318 q=-0.0 size=N/A time=00:01:42.47 bitrate=N/A speed=13.3x    frame= 2591 fps=315 q=-0.0 size=N/A time=00:01:48.06 bitrate=N/A speed=13.1x    frame= 2727 fps=311 q=-0.0 size=N/A time=00:01:53.73 bitrate=N/A speed=  13x    frame= 2862 fps=309 q=-0.0 size=N/A time=00:01:59.36 bitrate=N/A speed=12.9x    frame= 2991 fps=306 q=-0.0 size=N/A time=00:02:04.74 bitrate=N/A speed=12.7x    frame= 3172 fps=308 q=-0.0 size=N/A time=00:02:12.29 bitrate=N/A speed=12.8x    frame= 3328 fps=307 q=-0.0 size=N/A time=00:02:18.80 bitrate=N/A speed=12.8x    frame= 3482 fps=307 q=-0.0 size=N/A time=00:02:25.22 bitrate=N/A speed=12.8x    frame= 3683 fps=311 q=-0.0 size=N/A time=00:02:33.61 bitrate=N/A speed=  13x    frame= 3868 fps=313 q=-0.0 size=N/A time=00:02:41.32 bitrate=N/A speed=13.1x    frame= 4073 fps=316 q=-0.0 size=N/A time=00:02:49.87 bitrate=N/A speed=13.2x    frame= 4258 fps=318 q=-0.0 size=N/A time=00:02:57.59 bitrate=N/A speed=13.3x    frame= 4462 fps=321 q=-0.0 size=N/A time=00:03:06.10 bitrate=N/A speed=13.4x    frame= 4662 fps=323 q=-0.0 size=N/A time=00:03:14.44 bitrate=N/A speed=13.5x    frame= 4852 fps=325 q=-0.0 size=N/A time=00:03:22.36 bitrate=N/A speed=13.5x    frame= 5034 fps=326 q=-0.0 size=N/A time=00:03:29.95 bitrate=N/A speed=13.6x    frame= 5238 fps=328 q=-0.0 size=N/A time=00:03:38.46 bitrate=N/A speed=13.7x    frame= 5435 fps=330 q=-0.0 size=N/A time=00:03:46.68 bitrate=N/A speed=13.8x    frame= 5646 fps=332 q=-0.0 size=N/A time=00:03:55.48 bitrate=N/A speed=13.8x    frame= 5831 fps=333 q=-0.0 size=N/A time=00:04:03.20 bitrate=N/A speed=13.9x    frame= 6022 fps=334 q=-0.0 size=N/A time=00:04:11.16 bitrate=N/A speed=13.9x    frame= 6218 fps=335 q=-0.0 size=N/A time=00:04:19.34 bitrate=N/A speed=  14x    frame= 6417 fps=336 q=-0.0 size=N/A time=00:04:27.64 bitrate=N/A speed=  14x    frame= 6615 fps=338 q=-0.0 size=N/A time=00:04:35.90 bitrate=N/A speed=14.1x    frame= 6821 fps=339 q=-0.0 size=N/A time=00:04:44.49 bitrate=N/A speed=14.2x    frame= 7026 fps=341 q=-0.0 size=N/A time=00:04:53.04 bitrate=N/A speed=14.2x    frame= 7229 fps=342 q=-0.0 size=N/A time=00:05:01.50 bitrate=N/A speed=14.3x    frame= 7437 fps=344 q=-0.0 size=N/A time=00:05:10.18 bitrate=N/A speed=14.3x    frame= 7631 fps=344 q=-0.0 size=N/A time=00:05:18.27 bitrate=N/A speed=14.4x    frame= 7802 fps=344 q=-0.0 size=N/A time=00:05:25.40 bitrate=N/A speed=14.4x    frame= 8003 fps=345 q=-0.0 size=N/A time=00:05:33.79 bitrate=N/A speed=14.4x    frame= 8196 fps=346 q=-0.0 size=N/A time=00:05:41.84 bitrate=N/A speed=14.4x    frame= 8401 fps=347 q=-0.0 size=N/A time=00:05:50.39 bitrate=N/A speed=14.5x    frame= 8573 fps=347 q=-0.0 size=N/A time=00:05:57.56 bitrate=N/A speed=14.5x    frame= 8768 fps=347 q=-0.0 size=N/A time=00:06:05.69 bitrate=N/A speed=14.5x    frame= 8939 fps=347 q=-0.0 size=N/A time=00:06:12.83 bitrate=N/A speed=14.5x    frame= 9114 fps=347 q=-0.0 size=N/A time=00:06:20.12 bitrate=N/A speed=14.5x    frame= 9267 fps=346 q=-0.0 size=N/A time=00:06:26.51 bitrate=N/A speed=14.4x    frame= 9466 fps=347 q=-0.0 size=N/A time=00:06:34.81 bitrate=N/A speed=14.5x    frame= 9668 fps=347 q=-0.0 size=N/A time=00:06:43.23 bitrate=N/A speed=14.5x    frame= 9836 fps=347 q=-0.0 size=N/A time=00:06:50.24 bitrate=N/A speed=14.5x    frame=10001 fps=347 q=-0.0 size=N/A time=00:06:57.12 bitrate=N/A speed=14.5x    frame=10206 fps=347 q=-0.0 size=N/A time=00:07:05.67 bitrate=N/A speed=14.5x    frame=10396 fps=348 q=-0.0 size=N/A time=00:07:13.59 bitrate=N/A speed=14.5x    frame=10586 fps=348 q=-0.0 size=N/A time=00:07:21.52 bitrate=N/A speed=14.5x    frame=10779 fps=348 q=-0.0 size=N/A time=00:07:29.57 bitrate=N/A speed=14.5x    frame=10977 fps=349 q=-0.0 size=N/A time=00:07:37.83 bitrate=N/A speed=14.6x    frame=11117 fps=348 q=-0.0 size=N/A time=00:07:43.67 bitrate=N/A speed=14.5x    frame=11311 fps=348 q=-0.0 size=N/A time=00:07:51.76 bitrate=N/A speed=14.5x    frame=11504 fps=349 q=-0.0 size=N/A time=00:07:59.81 bitrate=N/A speed=14.5x    frame=11702 fps=349 q=-0.0 size=N/A time=00:08:08.07 bitrate=N/A speed=14.6x    frame=11891 fps=349 q=-0.0 size=N/A time=00:08:15.95 bitrate=N/A speed=14.6x    frame=12083 fps=350 q=-0.0 size=N/A time=00:08:23.96 bitrate=N/A speed=14.6x    frame=12295 fps=351 q=-0.0 size=N/A time=00:08:32.80 bitrate=N/A speed=14.6x    frame=12488 fps=351 q=-0.0 size=N/A time=00:08:40.85 bitrate=N/A speed=14.6x    frame=12684 fps=351 q=-0.0 size=N/A time=00:08:49.02 bitrate=N/A speed=14.7x    frame=12884 fps=352 q=-0.0 size=N/A time=00:08:57.37 bitrate=N/A speed=14.7x    frame=13083 fps=352 q=-0.0 size=N/A time=00:09:05.67 bitrate=N/A speed=14.7x    frame=13277 fps=353 q=-0.0 size=N/A time=00:09:13.76 bitrate=N/A speed=14.7x    frame=13484 fps=353 q=-0.0 size=N/A time=00:09:22.39 bitrate=N/A speed=14.7x    frame=13678 fps=354 q=-0.0 size=N/A time=00:09:30.48 bitrate=N/A speed=14.8x    frame=13890 fps=354 q=-0.0 size=N/A time=00:09:39.32 bitrate=N/A speed=14.8x    frame=14090 fps=355 q=-0.0 size=N/A time=00:09:47.67 bitrate=N/A speed=14.8x    frame=14265 fps=354 q=-0.0 size=N/A time=00:09:54.96 bitrate=N/A speed=14.8x    frame=14466 fps=355 q=-0.0 size=N/A time=00:10:03.35 bitrate=N/A speed=14.8x    frame=14662 fps=355 q=-0.0 size=N/A time=00:10:11.52 bitrate=N/A speed=14.8x    frame=14866 fps=356 q=-0.0 size=N/A time=00:10:20.03 bitrate=N/A speed=14.8x    frame=15052 fps=356 q=-0.0 size=N/A time=00:10:27.79 bitrate=N/A speed=14.8x    frame=15216 fps=355 q=-0.0 size=N/A time=00:10:34.63 bitrate=N/A speed=14.8x    frame=15398 fps=355 q=-0.0 size=N/A time=00:10:42.22 bitrate=N/A speed=14.8x    frame=15612 fps=356 q=-0.0 size=N/A time=00:10:51.15 bitrate=N/A speed=14.8x    frame=15814 fps=356 q=-0.0 size=N/A time=00:10:59.57 bitrate=N/A speed=14.9x    frame=16004 fps=357 q=-0.0 size=N/A time=00:11:07.50 bitrate=N/A speed=14.9x    frame=16208 fps=357 q=-0.0 size=N/A time=00:11:16.00 bitrate=N/A speed=14.9x    frame=16414 fps=357 q=-0.0 size=N/A time=00:11:24.60 bitrate=N/A speed=14.9x    frame=16605 fps=358 q=-0.0 size=N/A time=00:11:32.56 bitrate=N/A speed=14.9x    frame=16797 fps=358 q=-0.0 size=N/A time=00:11:40.57 bitrate=N/A speed=14.9x    frame=16959 fps=357 q=-0.0 size=N/A time=00:11:47.33 bitrate=N/A speed=14.9x    frame=17127 fps=357 q=-0.0 size=N/A time=00:11:54.33 bitrate=N/A speed=14.9x    frame=17309 fps=357 q=-0.0 size=N/A time=00:12:01.92 bitrate=N/A speed=14.9x    frame=17493 fps=357 q=-0.0 size=N/A time=00:12:09.60 bitrate=N/A speed=14.9x    frame=17674 fps=357 q=-0.0 size=N/A time=00:12:17.15 bitrate=N/A speed=14.9x    frame=17877 fps=357 q=-0.0 size=N/A time=00:12:25.61 bitrate=N/A speed=14.9x    frame=18064 fps=357 q=-0.0 size=N/A time=00:12:33.41 bitrate=N/A speed=14.9x    frame=18239 fps=357 q=-0.0 size=N/A time=00:12:40.71 bitrate=N/A speed=14.9x    frame=18444 fps=358 q=-0.0 size=N/A time=00:12:49.26 bitrate=N/A speed=14.9x    frame=18653 fps=358 q=-0.0 size=N/A time=00:12:57.98 bitrate=N/A speed=14.9x    frame=18862 fps=359 q=-0.0 size=N/A time=00:13:06.70 bitrate=N/A speed=  15x    frame=19053 fps=359 q=-0.0 size=N/A time=00:13:14.66 bitrate=N/A speed=  15x    frame=19257 fps=359 q=-0.0 size=N/A time=00:13:23.17 bitrate=N/A speed=  15x    frame=19455 fps=359 q=-0.0 size=N/A time=00:13:31.43 bitrate=N/A speed=  15x    frame=19650 fps=359 q=-0.0 size=N/A time=00:13:39.56 bitrate=N/A speed=  15x    frame=19851 fps=360 q=-0.0 size=N/A time=00:13:47.95 bitrate=N/A speed=  15x    frame=20054 fps=360 q=-0.0 size=N/A time=00:13:56.41 bitrate=N/A speed=  15x    frame=20252 fps=360 q=-0.0 size=N/A time=00:14:04.67 bitrate=N/A speed=  15x    frame=20420 fps=360 q=-0.0 size=N/A time=00:14:11.68 bitrate=N/A speed=  15x    frame=20601 fps=360 q=-0.0 size=N/A time=00:14:19.23 bitrate=N/A speed=  15x    frame=20808 fps=360 q=-0.0 size=N/A time=00:14:27.86 bitrate=N/A speed=  15x    frame=20977 fps=360 q=-0.0 size=N/A time=00:14:34.91 bitrate=N/A speed=  15x    frame=21182 fps=360 q=-0.0 size=N/A time=00:14:43.46 bitrate=N/A speed=  15x    frame=21376 fps=360 q=-0.0 size=N/A time=00:14:51.55 bitrate=N/A speed=  15x    frame=21580 fps=361 q=-0.0 size=N/A time=00:15:00.06 bitrate=N/A speed=  15x    frame=21765 fps=361 q=-0.0 size=N/A time=00:15:07.78 bitrate=N/A speed=  15x    frame=21968 fps=361 q=-0.0 size=N/A time=00:15:16.24 bitrate=N/A speed=15.1x    frame=22173 fps=361 q=-0.0 size=N/A time=00:15:24.79 bitrate=N/A speed=15.1x    frame=22374 fps=361 q=-0.0 size=N/A time=00:15:33.18 bitrate=N/A speed=15.1x    frame=22542 fps=361 q=-0.0 size=N/A time=00:15:40.18 bitrate=N/A speed=15.1x    frame=22746 fps=361 q=-0.0 size=N/A time=00:15:48.69 bitrate=N/A speed=15.1x    frame=22953 fps=362 q=-0.0 size=N/A time=00:15:57.33 bitrate=N/A speed=15.1x    frame=23114 fps=361 q=-0.0 size=N/A time=00:16:04.04 bitrate=N/A speed=15.1x    frame=23318 fps=362 q=-0.0 size=N/A time=00:16:12.55 bitrate=N/A speed=15.1x    frame=23517 fps=362 q=-0.0 size=N/A time=00:16:20.85 bitrate=N/A speed=15.1x    frame=23718 fps=362 q=-0.0 size=N/A time=00:16:29.23 bitrate=N/A speed=15.1x    frame=23917 fps=362 q=-0.0 size=N/A time=00:16:37.53 bitrate=N/A speed=15.1x    frame=24110 fps=362 q=-0.0 size=N/A time=00:16:45.58 bitrate=N/A speed=15.1x    frame=24306 fps=362 q=-0.0 size=N/A time=00:16:53.76 bitrate=N/A speed=15.1x    frame=24500 fps=363 q=-0.0 size=N/A time=00:17:01.85 bitrate=N/A speed=15.1x    frame=24701 fps=363 q=-0.0 size=N/A time=00:17:10.23 bitrate=N/A speed=15.1x    frame=24904 fps=363 q=-0.0 size=N/A time=00:17:18.70 bitrate=N/A speed=15.1x    frame=25111 fps=363 q=-0.0 size=N/A time=00:17:27.33 bitrate=N/A speed=15.2x    frame=25319 fps=364 q=-0.0 size=N/A time=00:17:36.01 bitrate=N/A speed=15.2x    frame=25521 fps=364 q=-0.0 size=N/A time=00:17:44.43 bitrate=N/A speed=15.2x    frame=25719 fps=364 q=-0.0 size=N/A time=00:17:52.69 bitrate=N/A speed=15.2x    frame=25925 fps=364 q=-0.0 size=N/A time=00:18:01.28 bitrate=N/A speed=15.2x    frame=26125 fps=364 q=-0.0 size=N/A time=00:18:09.63 bitrate=N/A speed=15.2x    frame=26338 fps=365 q=-0.0 size=N/A time=00:18:18.51 bitrate=N/A speed=15.2x    frame=26527 fps=365 q=-0.0 size=N/A time=00:18:26.39 bitrate=N/A speed=15.2x    frame=26727 fps=365 q=-0.0 size=N/A time=00:18:34.73 bitrate=N/A speed=15.2x    frame=26925 fps=365 q=-0.0 size=N/A time=00:18:42.99 bitrate=N/A speed=15.2x    frame=27131 fps=365 q=-0.0 size=N/A time=00:18:51.58 bitrate=N/A speed=15.2x    frame=27330 fps=365 q=-0.0 size=N/A time=00:18:59.88 bitrate=N/A speed=15.2x    frame=27524 fps=366 q=-0.0 size=N/A time=00:19:07.98 bitrate=N/A speed=15.2x    frame=27712 fps=366 q=-0.0 size=N/A time=00:19:15.82 bitrate=N/A speed=15.2x    frame=27894 fps=365 q=-0.0 size=N/A time=00:19:23.41 bitrate=N/A speed=15.2x    frame=28101 fps=366 q=-0.0 size=N/A time=00:19:32.04 bitrate=N/A speed=15.3x    frame=28291 fps=366 q=-0.0 size=N/A time=00:19:39.97 bitrate=N/A speed=15.3x    frame=28484 fps=366 q=-0.0 size=N/A time=00:19:48.02 bitrate=N/A speed=15.3x    frame=28696 fps=366 q=-0.0 size=N/A time=00:19:56.86 bitrate=N/A speed=15.3x    frame=28888 fps=366 q=-0.0 size=N/A time=00:20:04.87 bitrate=N/A speed=15.3x    frame=29103 fps=366 q=-0.0 size=N/A time=00:20:13.83 bitrate=N/A speed=15.3x    frame=29312 fps=367 q=-0.0 size=N/A time=00:20:22.55 bitrate=N/A speed=15.3x    frame=29513 fps=367 q=-0.0 size=N/A time=00:20:30.93 bitrate=N/A speed=15.3x    frame=29708 fps=367 q=-0.0 size=N/A time=00:20:39.07 bitrate=N/A speed=15.3x    frame=29907 fps=367 q=-0.0 size=N/A time=00:20:47.37 bitrate=N/A speed=15.3x    frame=30109 fps=367 q=-0.0 size=N/A time=00:20:55.79 bitrate=N/A speed=15.3x    frame=30311 fps=367 q=-0.0 size=N/A time=00:21:04.22 bitrate=N/A speed=15.3x    frame=30514 fps=367 q=-0.0 size=N/A time=00:21:12.68 bitrate=N/A speed=15.3x    frame=30701 fps=367 q=-0.0 size=N/A time=00:21:20.48 bitrate=N/A speed=15.3x    frame=30882 fps=367 q=-0.0 size=N/A time=00:21:28.03 bitrate=N/A speed=15.3x    frame=31090 fps=367 q=-0.0 size=N/A time=00:21:36.71 bitrate=N/A speed=15.3x    frame=31275 fps=367 q=-0.0 size=N/A time=00:21:44.42 bitrate=N/A speed=15.3x    frame=31460 fps=367 q=-0.0 size=N/A time=00:21:52.14 bitrate=N/A speed=15.3x    frame=31662 fps=367 q=-0.0 size=N/A time=00:22:00.56 bitrate=N/A speed=15.3x    frame=31853 fps=368 q=-0.0 size=N/A time=00:22:08.53 bitrate=N/A speed=15.3x    frame=32044 fps=368 q=-0.0 size=N/A time=00:22:16.50 bitrate=N/A speed=15.3x    frame=32243 fps=368 q=-0.0 size=N/A time=00:22:24.80 bitrate=N/A speed=15.3x    frame=32391 fps=367 q=-0.0 size=N/A time=00:22:30.97 bitrate=N/A speed=15.3x    frame=32582 fps=367 q=-0.0 size=N/A time=00:22:38.94 bitrate=N/A speed=15.3x    frame=32779 fps=367 q=-0.0 size=N/A time=00:22:47.15 bitrate=N/A speed=15.3x    frame=32970 fps=367 q=-0.0 size=N/A time=00:22:55.12 bitrate=N/A speed=15.3x    frame=33175 fps=367 q=-0.0 size=N/A time=00:23:03.67 bitrate=N/A speed=15.3x    frame=33348 fps=367 q=-0.0 size=N/A time=00:23:10.88 bitrate=N/A speed=15.3x    frame=33517 fps=367 q=-0.0 size=N/A time=00:23:17.93 bitrate=N/A speed=15.3x    frame=33712 fps=367 q=-0.0 size=N/A time=00:23:26.07 bitrate=N/A speed=15.3x    frame=33908 fps=367 q=-0.0 size=N/A time=00:23:34.24 bitrate=N/A speed=15.3x    frame=34099 fps=367 q=-0.0 size=N/A time=00:23:42.21 bitrate=N/A speed=15.3x    frame=34294 fps=367 q=-0.0 size=N/A time=00:23:50.34 bitrate=N/A speed=15.3x    frame=34438 fps=367 q=-0.0 size=N/A time=00:23:56.35 bitrate=N/A speed=15.3x    frame=34591 fps=366 q=-0.0 size=N/A time=00:24:02.73 bitrate=N/A speed=15.3x    frame=34770 fps=366 q=-0.0 size=N/A time=00:24:10.19 bitrate=N/A speed=15.3x    frame=34959 fps=366 q=-0.0 size=N/A time=00:24:18.08 bitrate=N/A speed=15.3x    [Parsed_psnr_12 @ 0000012a56510240] PSNR y:47.198648 u:50.323843 v:50.686043 average:48.047353 min:38.300448 max:inf
[out#0/null @ 0000012a3fd04ac0] video:15064KiB audio:274164KiB subtitle:0KiB other streams:0KiB global headers:0KiB muxing overhead: unknown
frame=35057 fps=366 q=-0.0 Lsize=N/A time=00:24:22.16 bitrate=N/A speed=15.3x    
